<mxfile host="Electron" modified="2024-07-13T05:12:08.340Z" agent="Mozilla/5.0 (X11; Linux x86_64) AppleWebKit/537.36 (KHTML, like Gecko) draw.io/24.6.4 Chrome/124.0.6367.207 Electron/30.0.6 Safari/537.36" etag="4bLsoPdVA70WlzOwqYrM" version="24.6.4" type="device">
  <diagram name="Page-1" id="psHS3y8608j5eSexN2w7">
    <mxGraphModel dx="1332" dy="622" grid="1" gridSize="10" guides="1" tooltips="1" connect="1" arrows="1" fold="1" page="1" pageScale="1" pageWidth="850" pageHeight="1100" math="0" shadow="0">
      <root>
        <mxCell id="0" />
        <mxCell id="1" parent="0" />
        <mxCell id="jxktujVA5t9StIB7bEGH-5" style="edgeStyle=orthogonalEdgeStyle;rounded=0;orthogonalLoop=1;jettySize=auto;html=1;exitX=0;exitY=0.5;exitDx=0;exitDy=0;entryX=0.5;entryY=0;entryDx=0;entryDy=0;" edge="1" parent="1" source="jxktujVA5t9StIB7bEGH-1" target="jxktujVA5t9StIB7bEGH-2">
          <mxGeometry relative="1" as="geometry" />
        </mxCell>
        <mxCell id="jxktujVA5t9StIB7bEGH-6" style="edgeStyle=orthogonalEdgeStyle;rounded=0;orthogonalLoop=1;jettySize=auto;html=1;exitX=0.5;exitY=1;exitDx=0;exitDy=0;entryX=0.5;entryY=0;entryDx=0;entryDy=0;" edge="1" parent="1" source="jxktujVA5t9StIB7bEGH-1" target="jxktujVA5t9StIB7bEGH-3">
          <mxGeometry relative="1" as="geometry" />
        </mxCell>
        <mxCell id="jxktujVA5t9StIB7bEGH-7" style="edgeStyle=orthogonalEdgeStyle;rounded=0;orthogonalLoop=1;jettySize=auto;html=1;exitX=1;exitY=0.5;exitDx=0;exitDy=0;entryX=0.5;entryY=0;entryDx=0;entryDy=0;" edge="1" parent="1" source="jxktujVA5t9StIB7bEGH-1" target="jxktujVA5t9StIB7bEGH-4">
          <mxGeometry relative="1" as="geometry" />
        </mxCell>
        <mxCell id="jxktujVA5t9StIB7bEGH-1" value="HomePage" style="rounded=0;whiteSpace=wrap;html=1;" vertex="1" parent="1">
          <mxGeometry x="500" y="220" width="120" height="60" as="geometry" />
        </mxCell>
        <mxCell id="jxktujVA5t9StIB7bEGH-10" style="edgeStyle=orthogonalEdgeStyle;rounded=0;orthogonalLoop=1;jettySize=auto;html=1;exitX=0.5;exitY=1;exitDx=0;exitDy=0;entryX=0.5;entryY=0;entryDx=0;entryDy=0;" edge="1" parent="1" source="jxktujVA5t9StIB7bEGH-2" target="jxktujVA5t9StIB7bEGH-8">
          <mxGeometry relative="1" as="geometry" />
        </mxCell>
        <mxCell id="jxktujVA5t9StIB7bEGH-2" value="MealsPage" style="rounded=0;whiteSpace=wrap;html=1;" vertex="1" parent="1">
          <mxGeometry x="270" y="340" width="120" height="60" as="geometry" />
        </mxCell>
        <mxCell id="jxktujVA5t9StIB7bEGH-11" style="edgeStyle=orthogonalEdgeStyle;rounded=0;orthogonalLoop=1;jettySize=auto;html=1;exitX=0.5;exitY=1;exitDx=0;exitDy=0;entryX=0.5;entryY=0;entryDx=0;entryDy=0;" edge="1" parent="1" source="jxktujVA5t9StIB7bEGH-3" target="jxktujVA5t9StIB7bEGH-9">
          <mxGeometry relative="1" as="geometry" />
        </mxCell>
        <mxCell id="jxktujVA5t9StIB7bEGH-3" value="CocktailsPage" style="rounded=0;whiteSpace=wrap;html=1;" vertex="1" parent="1">
          <mxGeometry x="425" y="340" width="120" height="60" as="geometry" />
        </mxCell>
        <mxCell id="jxktujVA5t9StIB7bEGH-4" value="Blogs" style="rounded=0;whiteSpace=wrap;html=1;" vertex="1" parent="1">
          <mxGeometry x="720" y="340" width="120" height="60" as="geometry" />
        </mxCell>
        <mxCell id="jxktujVA5t9StIB7bEGH-8" value="Recipe" style="rounded=0;whiteSpace=wrap;html=1;" vertex="1" parent="1">
          <mxGeometry x="270" y="440" width="120" height="60" as="geometry" />
        </mxCell>
        <mxCell id="jxktujVA5t9StIB7bEGH-9" value="Recipe" style="rounded=0;whiteSpace=wrap;html=1;" vertex="1" parent="1">
          <mxGeometry x="425" y="440" width="120" height="60" as="geometry" />
        </mxCell>
        <mxCell id="jxktujVA5t9StIB7bEGH-17" value="Filters" style="rounded=0;whiteSpace=wrap;html=1;" vertex="1" parent="1">
          <mxGeometry x="110" y="340" width="120" height="60" as="geometry" />
        </mxCell>
        <mxCell id="jxktujVA5t9StIB7bEGH-18" value="Filters" style="rounded=0;whiteSpace=wrap;html=1;" vertex="1" parent="1">
          <mxGeometry x="570" y="340" width="120" height="60" as="geometry" />
        </mxCell>
        <mxCell id="jxktujVA5t9StIB7bEGH-19" value="" style="endArrow=none;dashed=1;html=1;rounded=0;exitX=1;exitY=0.5;exitDx=0;exitDy=0;entryX=0;entryY=0.5;entryDx=0;entryDy=0;" edge="1" parent="1" source="jxktujVA5t9StIB7bEGH-17" target="jxktujVA5t9StIB7bEGH-2">
          <mxGeometry width="50" height="50" relative="1" as="geometry">
            <mxPoint x="540" y="350" as="sourcePoint" />
            <mxPoint x="590" y="300" as="targetPoint" />
          </mxGeometry>
        </mxCell>
        <mxCell id="jxktujVA5t9StIB7bEGH-20" value="" style="endArrow=none;dashed=1;html=1;rounded=0;entryX=0;entryY=0.5;entryDx=0;entryDy=0;exitX=1;exitY=0.5;exitDx=0;exitDy=0;" edge="1" parent="1" source="jxktujVA5t9StIB7bEGH-3" target="jxktujVA5t9StIB7bEGH-18">
          <mxGeometry width="50" height="50" relative="1" as="geometry">
            <mxPoint x="400" y="350" as="sourcePoint" />
            <mxPoint x="450" y="300" as="targetPoint" />
          </mxGeometry>
        </mxCell>
      </root>
    </mxGraphModel>
  </diagram>
</mxfile>
